<mxfile host="app.diagrams.net" modified="2023-12-30T15:25:17.366Z" agent="Mozilla/5.0 (Windows NT 10.0; Win64; x64) AppleWebKit/537.36 (KHTML, like Gecko) Chrome/121.0.0.0 Safari/537.36" version="22.1.16" etag="mZiM-DqRGDLMq64_EY5p" type="github">
  <diagram name="第 1 页" id="DaFjKJrQzt2h4_7o2OfX">
    <mxGraphModel>
      <root>
        <mxCell id="0" />
        <mxCell id="1" parent="0" />
      </root>
    </mxGraphModel>
  </diagram>
</mxfile>
